<svg width="32" height="32" viewBox="0 0 32 32" fill="none" xmlns="http://www.w3.org/2000/svg">
  <g clip-path="url(#clip0_1_3)">
    <path
      d="M20.3028 28.7907L29.4465 3.364C29.6016 2.93274 29.3572 2.61834 28.9009 2.66232L21.7104 3.35504C21.2542 3.39902 20.7615 3.78598 20.6109 4.21872L12.1475 28.5184C11.9967 28.951 12.2464 29.3024 12.7046 29.3024H19.7035C19.9327 29.3024 20.1817 29.1274 20.2592 28.9117L20.3028 28.7907V28.7907Z"
      fill="#536B8A"/>
    <path
      d="M3.0921 2.66232L10.2828 3.35504C10.7389 3.39902 11.2321 3.78577 11.3835 4.2183L20.026 28.9106C20.1016 29.1269 19.977 29.3024 19.7478 29.3024H12.7046C12.2464 29.3024 11.7485 28.9523 11.5934 28.521L2.54662 3.364C2.39158 2.93274 2.63595 2.61834 3.0921 2.66232V2.66232Z"
      fill="#5D87BF"/>
  </g>
  <defs>
    <clipPath id="clip0_1_3">
      <rect width="27" height="27" fill="white" transform="translate(2.5 2.5)"/>
    </clipPath>
  </defs>
</svg>
