<svg width="362" height="362" viewBox="0 0 362 362" fill="none" xmlns="http://www.w3.org/2000/svg">
  <g clip-path="url(#clip0_102_36)">
    <path
      d="M223.267 309.619L315.212 53.9379C316.77 49.6014 314.313 46.4398 309.725 46.8821L237.422 53.8479C232.834 54.29 227.879 58.1813 226.365 62.5327L141.261 306.879C139.745 311.229 142.255 314.763 146.863 314.763H217.241C219.546 314.763 222.05 313.003 222.829 310.833L223.267 309.619Z"
      fill="url(#paint0_linear_102_36)"/>
    <path
      d="M50.2037 46.8821L122.51 53.8479C127.097 54.29 132.056 58.179 133.579 62.5284L220.483 310.824C221.244 312.999 219.991 314.763 217.686 314.763H146.863C142.255 314.763 137.248 311.243 135.689 306.906L44.7187 53.9379C43.1597 49.6014 45.617 46.4398 50.2037 46.8821Z"
      fill="url(#paint1_linear_102_36)"/>
  </g>
  <defs>
    <linearGradient id="paint0_linear_102_36" x1="228.25" y1="46.8408" x2="228.25" y2="314.763"
                    gradientUnits="userSpaceOnUse">
      <stop stop-color="#15C4C2"/>
      <stop offset="1" stop-color="#0B8CF2"/>
    </linearGradient>
    <linearGradient id="paint1_linear_102_36" x1="132.478" y1="46.8408" x2="132.478" y2="314.763"
                    gradientUnits="userSpaceOnUse">
      <stop stop-color="#15E5F3"/>
      <stop offset="1" stop-color="#0B94FA"/>
    </linearGradient>
    <clipPath id="clip0_102_36">
      <rect width="362" height="362" fill="white"/>
    </clipPath>
  </defs>
</svg>
