<svg width="16" height="16" viewBox="0 0 16 16" fill="none" xmlns="http://www.w3.org/2000/svg">
<path d="M9.91236 13.6848L13.9762 2.384C14.0451 2.19233 13.9365 2.05259 13.7337 2.07214L10.538 2.38002C10.3352 2.39956 10.1162 2.57155 10.0493 2.76388L6.28779 13.5637C6.22076 13.756 6.33172 13.9122 6.53539 13.9122H9.64601C9.74787 13.9122 9.85855 13.8344 9.893 13.7385L9.91236 13.6848V13.6848Z" fill="#536B8A"/>
<path d="M2.26315 2.07214L5.459 2.38002C5.66173 2.39956 5.88092 2.57145 5.94823 2.76369L9.78931 13.7381C9.82292 13.8342 9.76756 13.9122 9.6657 13.9122H6.53539C6.33172 13.9122 6.11042 13.7566 6.04151 13.5649L2.02072 2.384C1.95181 2.19233 2.06042 2.05259 2.26315 2.07214V2.07214Z" fill="#5D87BF"/>
</svg>
