<svg width="16" height="16" viewBox="0 0 16 16" fill="none" xmlns="http://www.w3.org/2000/svg">
    <path fill-rule="evenodd" clip-rule="evenodd"
          d="M14.9516 9.5309L12.6977 8.22329C12.4287 8.06721 12.0971 8.06721 11.8281 8.22329L9.57428 9.5309C9.30535 9.68698 9.1396 9.97537 9.1396 10.2875V12.9028C9.1396 13.2148 9.30535 13.5034 9.57436 13.6594L11.8282 14.9668C11.9627 15.0449 12.1127 15.0838 12.263 15.0838C12.4131 15.0838 12.5631 15.0449 12.6976 14.9668L14.9515 13.6594C15.2205 13.5034 15.3863 13.2148 15.3863 12.9028V10.2875C15.3863 9.97537 15.2205 9.68698 14.9516 9.5309Z"
          fill="#FEFEFE"/>
    <path fill-rule="evenodd" clip-rule="evenodd"
          d="M11.9069 14.8332L9.65304 13.5258C9.4326 13.3979 9.29565 13.1593 9.29565 12.9029V10.2878C9.29565 10.0315 9.4326 9.79287 9.65297 9.66502L11.9069 8.3574C12.0149 8.29471 12.138 8.26156 12.2629 8.26156C12.3876 8.26156 12.5107 8.29471 12.6188 8.3574L14.8727 9.66502C15.0584 9.77279 15.1837 9.9594 15.219 10.1687C15.1442 10.0128 14.9756 9.9704 14.7792 10.0826L12.6469 11.3698C12.3811 11.5217 12.185 11.6922 12.1849 12.0055V14.5734C12.1847 14.761 12.2622 14.8826 12.3813 14.9178C12.3422 14.9244 12.3028 14.929 12.2629 14.929C12.138 14.929 12.0149 14.8959 11.9069 14.8332ZM14.9516 9.5309L12.6977 8.22329C12.5632 8.14521 12.4129 8.10648 12.2629 8.10648C12.1127 8.10648 11.9626 8.14521 11.8281 8.22329L9.57428 9.5309C9.30535 9.68698 9.1396 9.97537 9.1396 10.2875V12.9028C9.1396 13.2148 9.30535 13.5034 9.57436 13.6594L11.8282 14.9668C11.9627 15.0449 12.1127 15.0838 12.263 15.0838C12.4131 15.0838 12.5631 15.0449 12.6976 14.9668L14.9515 13.6594C15.2205 13.5034 15.3863 13.2148 15.3863 12.9028V10.2875C15.3863 9.97537 15.2205 9.68698 14.9516 9.5309Z"
          fill="#3E474A"/>
    <path fill-rule="evenodd" clip-rule="evenodd"
          d="M14.3606 13.1556L13.7994 13.4839C13.7845 13.4923 13.7736 13.5019 13.7735 13.5193V13.6629C13.7735 13.6804 13.7856 13.6877 13.8004 13.6792L14.3703 13.3406C14.3852 13.3322 14.3875 13.3159 14.3876 13.2985V13.1719C14.3876 13.1544 14.3755 13.1471 14.3606 13.1556Z"
          fill="#47B353"/>
    <path fill-rule="evenodd" clip-rule="evenodd"
          d="M13.1655 11.9473C13.1837 11.9383 13.1987 11.9494 13.1989 11.9727L13.2008 12.1624C13.2821 12.1308 13.3527 12.1223 13.4167 12.1368C13.4305 12.1404 13.4367 12.1589 13.431 12.1808L13.3883 12.349C13.385 12.3617 13.3776 12.3745 13.3688 12.3825C13.3651 12.386 13.3614 12.3888 13.3576 12.3907C13.3518 12.3935 13.3462 12.3944 13.3407 12.3933C13.3115 12.3869 13.2421 12.372 13.1329 12.4261C13.0183 12.4828 12.9782 12.5801 12.979 12.6523C12.98 12.7386 13.0252 12.7647 13.1815 12.7673C13.3898 12.7707 13.4797 12.8597 13.4819 13.0647C13.4841 13.266 13.3741 13.4821 13.2059 13.6146L13.2096 13.8024C13.2099 13.825 13.1948 13.851 13.1766 13.86L13.0628 13.924C13.0446 13.933 13.0296 13.922 13.0294 13.8993L13.0274 13.7146C12.9299 13.7542 12.8311 13.7637 12.768 13.739C12.7561 13.7344 12.751 13.7173 12.7557 13.6977L12.797 13.5279C12.8003 13.5145 12.8075 13.5011 12.8174 13.4926C12.8208 13.4893 12.8244 13.4867 12.8281 13.485C12.8346 13.4817 12.841 13.481 12.8464 13.483C12.9144 13.5054 13.0014 13.495 13.085 13.4536C13.1913 13.401 13.2623 13.2951 13.2612 13.1899C13.2602 13.0944 13.2073 13.0547 13.0787 13.0538C12.915 13.0543 12.7624 13.0227 12.7599 12.7872C12.7579 12.5933 12.861 12.3915 13.0243 12.2639L13.0223 12.0743C13.0221 12.051 13.0366 12.0253 13.0554 12.0161L13.1655 11.9473Z"
          fill="#FEFEFE"/>
    <path fill-rule="evenodd" clip-rule="evenodd"
          d="M14.3916 1.98482C14.6016 1.96336 14.714 2.11677 14.6427 2.32718L12.9166 7.41751C12.6272 7.29018 12.2918 7.30665 12.0142 7.46693L9.11705 9.13958C8.80764 9.31821 8.61705 9.64834 8.61705 10.0056V13.3509C8.61705 13.7082 8.80764 14.0383 9.11705 14.2169L10.3281 14.9161C10.2923 14.946 10.2501 14.9679 10.2073 14.9775C10.1827 14.9918 10.1516 15 10.1153 15H6.50299C6.26796 15 6.01259 14.8292 5.93307 14.6187L1.29318 2.34436C1.21366 2.13395 1.33899 1.98054 1.57294 2.002L5.26086 2.33999C5.49481 2.36144 5.74775 2.55015 5.82542 2.76119L8.33354 9.57833L10.5779 2.74421C10.6471 2.53307 10.8738 2.34426 11.0837 2.32281L14.3916 1.98482Z"
          fill="#5D87BF"/>
</svg>
